<svg xmlns="http://www.w3.org/2000/svg" id="Layer_1" data-name="Layer 1" viewBox="0 0 512 512"><defs><style>.cls-1{fill:#090909;}.cls-2{fill:#fdd81c;}</style></defs><title>What Changes will create by TMS</title><path class="cls-1" d="M424.89,318c15.25-7.69,28.38,2,31.19,15.75,2.64,13,6.69,25.63,10.1,38.44,3.2,12,2.53,15.4-5.32,25.71h21c1.24,0,2.48,0,3.71,0,1.73-.06,3.29.38,3.22,2.36s-1.73,2.14-3.42,2.14q-24.33-.06-48.67,0c-10.66,0-21.32.14-32,.21H349.61c-2.47-.08-4.94-.21-7.41-.21q-156.34,0-312.69,0c-.62,0-1.24,0-1.86,0-1.87-.13-4.61.7-4.47-2.4.11-2.63,2.62-2,4.39-2q27.84,0,55.68,0H93.77c.41-1.56-.8-1.72-1.4-2.2-7-5.65-9.15-12.91-7.25-21.51,2.3-10.39,4.51-20.81,7.12-31.12.93-3.68.18-5.41-3.3-7.13-13.07-6.48-20.13-17.31-21.61-31.77-.67-6.43,1.3-12.56,2.64-18.72C72.2,275.19,74.65,265,77,254.78c5.15-22.14,24.71-34.44,46.89-29.54,4.75,1,10.27,4.43,14.06,2.36,3.55-1.93,5-7.84,7.24-12q23.25-42.6,46.47-85.23c6.17-11.3,16.8-16.36,29.49-13.92,4.84.93,9.66,2,14.44,3.26,2,.49,2.82.6,3.22-2,1-6.68,4.5-9.6,11.29-9.83a6.9,6.9,0,0,0,4.43-1.9c6.37-5.2,12.73-5.31,19.36-.22a6.83,6.83,0,0,0,5.39,1.67c10.7-1.17,15.72,2.63,17.78,13.22a6,6,0,0,0,1.83,3.07c1.71,1.81,3.64,3.7,4,6.14.69,5.18,4.1,6.18,8.46,7.08,12.24,2.51,24.4,5.37,36.55,8.27,11.58,2.78,19.31,12.42,19.94,24.28,1.89,35.65,3.92,71.3,5.62,107,.21,4.59,1.81,6.27,6.13,7.06,9.25,1.7,18.46,3.61,25.92,10.18a48.08,48.08,0,0,1,10.72,14.37,61.63,61.63,0,0,1,3,14.85ZM411.3,397.66h24.11c-4.81-4.19-6.72-9-8-14.06-1.36-5.37-2.82-10.7-4.24-16.05q-3.2-11.7-6.41-23.42c-1.91.68-2.33,2-2.7,3.84-1.73,8.59-3.33,17.25-5.78,25.65-3.14,10.81-10.54,18.42-21.71,24ZM126.5,352.14c2.15-6.16,2.15-6.14-4-7.49-6.87-1.53-13.79-2.86-20.55-4.76-3.63-1-5.16-.29-5.13,3.46-2.58,11.4-5.47,22.75-7.63,34.24a15.09,15.09,0,0,0,11.36,17.2c8,2,16.21-2,18.49-9.83A273.75,273.75,0,0,0,126.5,352.14Zm300.15-29.5c-5.15,3.53-7.59,8.58-6.67,14.6a70.39,70.39,0,0,0,4.51,16.27c2,10.91,5.45,21.47,8.27,32.17A15.64,15.64,0,0,0,463,377.85q-6-23.25-12.54-46.34C447.31,320.38,436.62,316.58,426.65,322.64ZM322.89,397.73h29.43a18.7,18.7,0,0,0-6.17-2.14L139.06,348.38c-6.34-1.44-6.35-1.4-7.76,5.07-1,4.36-1.78,8.78-3.07,13.05-3.23,10.75-2.06,23.37-14.45,31.4h185C306.82,397.88,314.86,397.79,322.89,397.73Zm83-96.16c-3.92-7-10.61-9.9-17.86-11.56q-73.44-16.83-146.94-33.43c-39.67-9-79.3-18.18-119-26.91-19.49-4.29-36.22,6.76-40.75,26.14q-4.38,18.68-8.49,37.42C70,306.5,73.21,317.92,83.64,327c4.2,4.18,9.45,6.32,15.1,7.56,32.24,7,64.36,14.65,96.61,21.72,19,4.15,37.85,8.73,56.78,13.1C289.73,378,327.34,386.68,365,394.9c18.63,4.06,35.52-7.3,39.79-25.85,3-12.93,5.85-25.89,8.79-38.84a30.42,30.42,0,0,0,.27-13.35C412.63,311.14,411.3,305.23,405.91,301.57ZM314.7,184.08a50.33,50.33,0,0,1-14.6,34.85c-1.23,1.23-2.85,2.07-2.52,4.51,1.71,12.7.45,25.28-2.42,37.68-.59,2.57.16,3.22,2.35,3.72q34.28,7.71,68.53,15.56c2.82.65,3.32-.09,3.16-2.91-2-35.47-3.88-71-5.87-106.43-.71-12.49-6.77-19.36-19.05-22.12-11.57-2.61-23.14-5.27-34.72-7.84-2.05-.45-5-2.14-6.06-.76-2,2.46-4.75,4.41-5.79,7.58-.86,2.62-.83,4.59,1.86,6.64A37.17,37.17,0,0,1,314.7,184.08ZM244.86,169.6c-5.82-10.53-6.73-15.67-5.06-27,.19-1.33.88-2.55-.52-3.77-3.67-3.18-3.87-7.31-2.24-11.42,1-2.39.15-2.9-1.83-3.31-4.67-1-9.32-2.08-14-3.07-11.42-2.44-19.86,1.37-25.53,11.65q-14.59,26.51-29.08,53.07c-7.89,14.43-15.71,28.91-23.8,43.81,9.8,2.24,19.23,4.35,28.62,6.59,2.5.59,2.75-1,3.29-2.68a148.63,148.63,0,0,1,10.91-25.9c4.46-8.24,10.06-15.76,14.38-24.14,3.67-7.11,10.15-12.21,18.49-12.13C227.2,171.4,235.52,168.37,244.86,169.6Zm48.88,65.82c0-1.08,0-2.17,0-3.25.27-24.25-14.58-51-41.26-56.65-13.71-2.88-26-1.17-37.73,5.84-6,3.58-12.39,7.64-14.91,14.09-3.54,9.07-2.08,18.31,4.73,26,4.1,4.6,4.5,4.48,9.16.71,12.65-10.24,26.72-12.77,41.55-6,15.36,7,22.73,19.81,23.27,36.51.26,8,.08,7.84,8.09,9.72,2.65.62,3.68.47,4.29-2.56A126.42,126.42,0,0,0,293.74,235.42ZM274,252.58c0-16.82-11.8-31.66-27.65-34.84a35.8,35.8,0,0,0-39.63,21.09c-1.56,3.65-1.07,4.76,2.81,5.6,19.43,4.2,38.79,8.68,58.18,13.06C274,258.91,274,258.91,274,252.58Zm-6.71-76.5c15.75,9.3,24.86,22.65,29.1,39.65,18.33-16.49,18.12-44.15-.1-58.2-3-2.34-9.39-1.09-11.2,2.29C281.24,167.09,276.15,173.07,267.32,176.08Zm-23.81-26.54a25.78,25.78,0,0,0,2,11.45c1.54,3.3,2.77,7.34,6,9.06,10.45,5.53,23.84.27,28.72-10.84.4-.91,1.38-2-.31-2.6-9.86-3.37-12.37-11.68-15.15-20.52-.89-2.85-6.35-4.31-9.8-6.26-.36-.2-1.32.66-2,1C245.19,135,244,142.41,243.51,149.54Zm-50.2,54.84c-6.73,9.65-10.93,20.33-14.58,31.28-.71,2.13.48,2.21,2,2.54,4.82,1.05,9.68,2,14.37,3.44,4.11,1.28,6.4.63,7.43-3.92.52-2.32,2.18-4.38,3.33-6.55.53-1,1.5-1.88-.14-3C197.26,222.63,194.09,214.28,193.31,204.38Z"></path><path class="cls-1" d="M426.15,287.11c0-6.53,2.69-10.91,6.24-14.92,7.64-8.63,7.95-17.18.55-26.14-5-6.06-9.68-12-7.72-20.71,2.06-9.14,8-15,15.73-19.52,1.31-.76,3.06-1.34,3.93.68s-.59,2.75-2,3.54a26.69,26.69,0,0,0-11.58,11.57c-3,6.11-2.72,11.86,1.69,17.25,2.05,2.5,4.16,5,6,7.63a22.31,22.31,0,0,1-1.12,26.32c-1,1.2-2,2.34-3,3.5-4.41,5-5.19,10.63-2.63,16.76a45.08,45.08,0,0,0,5.71,10c1.09,1.42,1.5,2.76-.08,4s-2.62,0-3.44-1.12C430.06,300,426.58,293.75,426.15,287.11Z"></path><path class="cls-2" d="M349.61,402.59h55.16c-6.52,6.54-14.78,7.81-23.39,7.31-8.35-.48-16.32-3.2-24.43-5C354.5,404.29,351.64,404.65,349.61,402.59Z"></path><path class="cls-2" d="M424.89,318l-5.63,4.91a61.63,61.63,0,0,0-3-14.85C420.67,310,422.21,314.5,424.89,318Z"></path><path class="cls-2" d="M405.91,301.57c5.39,3.66,6.72,9.57,8,15.29a30.42,30.42,0,0,1-.27,13.35c-2.94,13-5.81,25.91-8.79,38.84C400.56,387.6,383.67,399,365,394.9c-37.7-8.22-75.31-16.87-112.91-25.54-18.93-4.37-37.82-8.95-56.78-13.1-32.25-7.07-64.37-14.68-96.61-21.72-5.65-1.24-10.9-3.38-15.1-7.56-3.65-11.44-1.3-22.54,1.64-33.69,2.2-8.36,4-16.83,5.74-25.3,4.26-20.61,22.64-33,43.18-28.69,15,3.16,29.81,6.79,44.71,10.2q33.18,7.59,66.38,15.14,36.36,8.26,72.72,16.44c20.33,4.58,40.71,8.94,61,13.75C388,297,397.2,298.29,405.91,301.57ZM127.37,264.26c-13.24-.12-24.45,11-24.61,24.44a24.65,24.65,0,0,0,24.48,25,24.9,24.9,0,0,0,24.93-24.63C152.31,275.67,141,264.37,127.37,264.26Zm208.52,77.8a24.42,24.42,0,0,0,24.85,24.51A24.85,24.85,0,0,0,385.21,342c.11-13.4-11.44-24.95-24.82-24.81A24.62,24.62,0,0,0,335.89,342.06ZM199.58,300.33c-2.36-.31-3.56-.06-3.91,1.44-.42,1.79.84,2.48,2.25,2.89,1,.31,2.1.49,3.15.73q32.51,7.2,65,14.4c8,1.77,15.94,3.61,23.92,5.34,1.47.32,3.28.7,3.76-1.47s-1.13-2.58-2.69-3c-.3-.07-.62-.08-.92-.15l-66.32-14.78Z"></path><path class="cls-2" d="M322.89,397.73c-5.82-2.56-12.15-3.22-18.25-4.66-23.75-5.57-47.56-10.89-71.35-16.28-23-5.21-46.07-10.36-69.09-15.6-11-2.5-21.93-5.14-32.9-7.73,1.41-6.48,1.42-6.52,7.76-5.08l207.09,47.21a18.7,18.7,0,0,1,6.17,2.14Z"></path><path class="cls-2" d="M411.3,397.66H386.56c11.17-5.62,18.57-13.23,21.71-24,2.45-8.4,4.05-17.06,5.78-25.65.37-1.84.79-3.16,2.7-3.84q3.21,11.73,6.41,23.42c-1.54.93-1.43,2.53-1.76,4C419.36,380.77,417.71,390.14,411.3,397.66Z"></path><path class="cls-2" d="M126.5,352.14c-10.25-1.67-20.52-3.27-29.63-8.79,0-3.75,1.5-4.48,5.13-3.46,6.76,1.9,13.68,3.23,20.55,4.76C128.65,346,128.65,346,126.5,352.14Z"></path><path class="cls-2" d="M426.65,322.64c3.85,10.61,2.36,20.84-2.16,30.87A70.39,70.39,0,0,1,420,337.24C419.06,331.22,421.5,326.17,426.65,322.64Z"></path><path class="cls-1" d="M127.37,264.26c13.64.11,24.94,11.41,24.8,24.8a24.9,24.9,0,0,1-24.93,24.63,24.65,24.65,0,0,1-24.48-25C102.92,275.28,114.13,264.14,127.37,264.26Zm-.05,6.12A18.61,18.61,0,1,0,146,288.79,18.46,18.46,0,0,0,127.32,270.38Z"></path><path class="cls-1" d="M335.89,342.06a24.62,24.62,0,0,1,24.5-24.91c13.38-.14,24.93,11.41,24.82,24.81a24.85,24.85,0,0,1-24.47,24.61A24.42,24.42,0,0,1,335.89,342.06Zm43.1-.29c-.07-11.65-7.39-17.5-21.85-17.43-8.17,0-15.36,8.26-15.36,17.59a18.75,18.75,0,0,0,19,18.63A18.39,18.39,0,0,0,379,341.77Z"></path><path class="cls-1" d="M199.58,300.33l24.26,5.44,66.32,14.78c.3.07.62.08.92.15,1.56.38,3.16.88,2.69,3s-2.29,1.79-3.76,1.47c-8-1.73-15.94-3.57-23.92-5.34q-32.5-7.21-65-14.4c-1-.24-2.12-.42-3.15-.73-1.41-.41-2.67-1.1-2.25-2.89C196,300.27,197.22,300,199.58,300.33Z"></path><path class="cls-2" d="M127.32,270.38A18.61,18.61,0,1,1,108.83,289,18.43,18.43,0,0,1,127.32,270.38Z"></path><path class="cls-2" d="M379,341.77a18.39,18.39,0,0,1-18.21,18.79,18.75,18.75,0,0,1-19-18.63c0-9.33,7.19-17.56,15.36-17.59C371.6,324.27,378.92,330.12,379,341.77Z"></path></svg>